HIERARCHY
ROOT Hips
{
	OFFSET 0 0 0
	CHANNELS 6 Xposition Yposition Zposition Yrotation Xrotation Zrotation
	JOINT Spine
	{
		OFFSET -0 8.14876 -2.59742
		CHANNELS 3 Yrotation Xrotation Zrotation
		JOINT Spine1
		{
			OFFSET -0 7.67319 0
			CHANNELS 3 Yrotation Xrotation Zrotation
			JOINT Spine2
			{
				OFFSET -0 7.67319 0
				CHANNELS 3 Yrotation Xrotation Zrotation
				JOINT Spine3
				{
					OFFSET -0 7.67319 0
					CHANNELS 3 Yrotation Xrotation Zrotation
					JOINT Neck
					{
						OFFSET -0 20.4825 3.59742
						CHANNELS 3 Yrotation Xrotation Zrotation
						JOINT Head
						{
							OFFSET -0 10.186 0
							CHANNELS 3 Yrotation Xrotation Zrotation
							End Site
							{
								OFFSET 0 15 0
							}
						}
					}
					JOINT LeftShoulder
					{
						OFFSET 1.69766 8.35598 3.39532
						CHANNELS 3 Yrotation Xrotation Zrotation
						JOINT LeftArm
						{
							OFFSET 15.6065 0 0
							CHANNELS 3 Yrotation Xrotation Zrotation
							JOINT LeftForeArm
							{
								OFFSET 25.8005 0 0
								CHANNELS 3 Yrotation Xrotation Zrotation
								JOINT LeftHand
								{
									OFFSET 24.1595 0 0
									CHANNELS 3 Yrotation Xrotation Zrotation
									End Site
									{
										OFFSET 15 0 0
									}
								}
							}
						}
					}
					JOINT RightShoulder
					{
						OFFSET -1.69766 8.35598 3.39532
						CHANNELS 3 Yrotation Xrotation Zrotation
						JOINT RightArm
						{
							OFFSET -15.6065 0 0
							CHANNELS 3 Yrotation Xrotation Zrotation
							JOINT RightForeArm
							{
								OFFSET -25.8005 0 0
								CHANNELS 3 Yrotation Xrotation Zrotation
								JOINT RightHand
								{
									OFFSET -24.1595 0 0
									CHANNELS 3 Yrotation Xrotation Zrotation
									End Site
									{
										OFFSET -15 0 0
									}
								}
							}
						}
					}
				}
			}
		}
	}
	JOINT LeftUpLeg
	{
		OFFSET 10.186 -3.39532 2
		CHANNELS 3 Yrotation Xrotation Zrotation
		JOINT LeftLeg
		{
			OFFSET -0 -40.8746 2.37672
			CHANNELS 3 Yrotation Xrotation Zrotation
			JOINT LeftFoot
			{
				OFFSET -0 -40.8058 -2.37672
				CHANNELS 3 Yrotation Xrotation Zrotation
				JOINT LeftToeBase
				{
					OFFSET -0 -6.55466 15.2789
					CHANNELS 3 Yrotation Xrotation Zrotation
					End Site
					{
						OFFSET 0 0 5
					}
				}
			}
		}
	}
	JOINT RightUpLeg
	{
		OFFSET -10.186 -3.39532 2
		CHANNELS 3 Yrotation Xrotation Zrotation
		JOINT RightLeg
		{
			OFFSET -0 -40.8746 2.37672
			CHANNELS 3 Yrotation Xrotation Zrotation
			JOINT RightFoot
			{
				OFFSET -0 -40.8058 -2.37672
				CHANNELS 3 Yrotation Xrotation Zrotation
				JOINT RightToeBase
				{
					OFFSET -0 -6.55466 15.2789
					CHANNELS 3 Yrotation Xrotation Zrotation
					End Site
					{
						OFFSET 0 0 5
					}
				}
			}
		}
	}
}
MOTION
Frames: 8
Frame Time: 0.00833333
7.463622 87.656464 -5.789261 -0.355311 19.091462 3.205669 1.442126 11.567243 -1.387059 0.524667 9.732323 -0.259258 0.256509 7.993748 0.886804 0.902085 6.825733 0.583181 -8.692064 -25.651898 5.331152 -3.002212 -10.583065 0.083706 4.592798 7.346913 1.419360 -44.517334 20.122552 -26.914964 -101.682296 -9.808540 -43.150635 12.363574 54.555110 -9.789124 1.669709 2.304553 9.437472 50.376994 -23.906004 16.380152 49.561973 -5.960239 -10.245422 -25.434995 1.816901 8.717064 18.061153 -42.928224 -15.198424 0.000000 47.217422 0.000000 -6.412122 -9.123594 7.644716 0.000000 -7.155028 0.000000 -1.236083 -49.985515 -6.511240 0.000000 49.421994 0.000000 -18.017506 -9.627637 7.500506 0.000000 -8.941153 0.000000
7.456865 88.009912 -5.674770 -0.149374 18.984266 3.895988 1.279620 11.378116 -1.322235 0.365356 9.746671 -0.318499 0.128447 7.991218 0.774426 0.780629 6.856792 0.623122 -8.572255 -25.556009 5.096117 -2.913640 -10.382867 -0.188251 4.787283 7.451153 1.362616 -44.307978 20.060493 -27.165228 -101.350686 -10.065988 -43.419450 12.419707 54.315986 -9.762647 1.366435 2.407241 8.988299 51.317247 -21.268260 15.546485 52.259212 -2.697588 -7.473562 -23.378268 1.957413 7.090632 19.336275 -42.167275 -16.030604 0.000000 46.584744 0.000000 -7.717171 -7.826505 6.858244 0.000000 -7.648878 0.000000 0.140026 -49.299486 -7.429831 0.000000 48.523359 0.000000 -17.789319 -10.343574 8.638145 0.000000 -8.887596 0.000000
7.460349 88.344836 -5.537337 0.139707 18.846014 4.627067 1.096921 11.236198 -1.225147 0.195651 9.695851 -0.330317 0.064060 7.947752 0.672777 0.703365 6.823747 0.487261 -8.756805 -25.198283 5.311590 -2.722011 -10.341968 -0.966316 4.709469 7.618933 1.357668 -44.170440 20.513284 -27.506453 -101.568858 -9.728305 -43.133872 12.443707 53.681437 -10.053653 0.930989 2.457818 8.777019 52.094656 -18.997276 14.930837 55.340891 0.737401 -4.969545 -21.654085 1.142212 5.870003 20.588788 -41.400005 -16.837832 0.000000 46.074058 0.000000 -9.153909 -6.618738 5.871671 0.000000 -7.937295 0.000000 1.388988 -48.462663 -8.365206 0.000000 47.480455 0.000000 -17.315463 -11.285854 9.681501 0.000000 -9.221673 0.000000
7.452884 88.652924 -5.397012 0.415963 18.735799 5.363231 0.971291 10.999659 -1.073069 0.090845 9.649346 -0.360584 -0.131553 7.931422 0.485034 0.466834 6.831570 0.358069 -8.681029 -24.880069 5.429588 -2.501212 -10.120230 -1.555008 4.911746 7.997665 1.443434 -43.909326 20.365471 -27.561681 -101.227623 -9.949182 -43.460719 12.733418 53.464365 -10.098144 0.589344 2.692611 8.617235 53.240831 -16.790465 14.143000 58.595475 3.532491 -3.388553 -19.626092 0.186972 6.012666 21.776864 -40.654013 -17.563496 0.000000 45.562910 0.000000 -10.722128 -5.403484 4.655401 0.000000 -8.299301 0.000000 2.539023 -47.684617 -9.262556 0.000000 46.505084 0.000000 -16.834062 -12.291536 10.702127 0.000000 -9.334618 0.000000
7.448740 88.911194 -5.244913 0.836505 18.576587 6.073269 0.671186 10.832724 -1.095075 -0.157594 9.514208 -0.323387 -0.164076 7.883536 0.579107 0.390006 6.858719 0.193092 -8.714064 -24.507622 5.331923 -2.455389 -9.923102 -1.874908 5.010199 8.239957 1.410689 -43.898638 20.723236 -27.890625 -101.167867 -9.923745 -43.331080 13.520123 53.114992 -9.613244 0.103982 2.977467 8.197060 54.377970 -14.725657 13.586026 62.031043 5.924985 -2.699861 -17.455451 -0.289244 8.012148 22.750810 -39.996337 -18.120803 0.000000 45.225738 0.000000 -12.406738 -4.410269 2.818542 0.000000 -8.513683 0.000000 3.499868 -46.823396 -10.113160 0.000000 45.531544 0.000000 -16.224455 -13.189283 11.877389 0.000000 -9.557999 0.000000
7.429718 89.141394 -5.100922 1.234402 18.402165 6.841686 0.481385 10.619352 -1.008227 -0.331533 9.448399 -0.419798 -0.271190 7.839780 0.351750 0.283694 6.900428 0.396386 -8.816977 -24.166023 5.388956 -2.284903 -9.781530 -2.629587 5.107412 8.441320 1.526978 -44.019320 20.923525 -28.316671 -100.977112 -9.906897 -43.241154 13.264068 52.753067 -9.945781 -0.238408 3.032669 7.811354 55.142529 -12.425305 13.292694 65.880796 7.358421 -2.885319 -15.148107 0.091937 10.450217 23.781403 -39.335557 -18.681920 0.000000 44.968940 0.000000 -14.220856 -3.475873 0.968172 0.000000 -8.583143 0.000000 4.495693 -45.979562 -11.069223 0.000000 44.606299 0.000000 -15.552167 -14.036560 13.049827 0.000000 -9.824877 0.000000
7.394967 89.343237 -4.952790 1.670315 18.234834 7.485501 0.254597 10.410884 -0.752902 -0.504291 9.290809 -0.380685 -0.362552 7.872281 0.139935 0.143036 6.933263 0.250113 -8.934428 -23.886364 5.423053 -2.211611 -9.454434 -3.141942 5.199327 8.638725 1.623410 -43.726880 20.918391 -28.451572 -100.663848 -10.462559 -43.379808 13.621438 53.324491 -10.861630 -0.624920 3.135646 7.665446 56.131926 -9.733822 13.017872 69.491670 8.286235 -4.471250 -12.082348 0.281353 14.587662 24.667642 -38.767171 -19.005085 0.000000 44.744959 0.000000 -16.242524 -2.696476 -1.143009 0.000000 -8.482010 0.000000 5.212801 -45.387880 -11.746496 0.000000 44.024187 0.000000 -14.614920 -14.397947 12.712184 0.000000 -10.003912 0.000000
7.350683 89.490167 -4.820887 2.112880 18.097662 8.221361 -0.017942 10.161036 -0.790617 -0.677667 9.163135 -0.359568 -0.353770 7.817022 0.247972 0.092596 7.013926 0.124754 -9.053285 -23.527578 5.214477 -2.211982 -9.371609 -3.515341 5.125111 8.731861 1.669021 -43.663746 21.264986 -28.828027 -100.796485 -10.414280 -43.188788 13.792790 53.227295 -11.423536 -0.980429 3.065203 7.241479 56.590666 -8.169706 13.168918 73.337427 9.009443 -5.629452 -8.966794 0.338831 19.042962 25.595961 -38.266670 -19.403323 0.000000 44.643502 0.000000 -18.256386 -2.080258 -3.414803 0.000000 -8.563574 0.000000 5.974373 -44.925202 -12.524499 0.000000 43.695821 0.000000 -13.452466 -14.475160 9.988980 0.000000 -10.119665 0.000000
